REM DIRINDEX 1\2,1\3,1\5,1\4\6,1\4\7
REM DIRNAME cjc065,folder01,folder02,folder03,folder04,folder05,folder06
TITLE ""
FILE "Disk3Track50.mp3" MP3
  TRACK 01 AUDIO
    TITLE "2:cjc065_1554"
    INDEX 01 00:00:00
  TRACK 02 AUDIO
    TITLE "2:cjc065_1555"
    INDEX 01 00:07:27
  TRACK 03 AUDIO
    TITLE "2:cjc065_1556"
    INDEX 01 00:23:18
  TRACK 04 AUDIO
    TITLE "2:cjc065_1557"
    INDEX 01 00:42:37
  TRACK 05 AUDIO
    TITLE "0:"
    INDEX 01 00:54:21
